cl__1 = 0.1555555555555556;
cl__2 = 0.1037037037037037;
cl__3 = 1e+22;
Point(1) = {0, 0, 0, 0.1555555555555556};
Point(2) = {7, 0, 0, 0.1555555555555556};
Point(3) = {7, 4, 0, 0.1555555555555556};
Point(4) = {0, 4, 0, 0.1555555555555556};
Point(5) = {0, 0, 2.5, 0.1555555555555556};
Point(6) = {7, 0, 2.5, 0.1555555555555556};
Point(7) = {7, 4, 2.5, 0.1555555555555556};
Point(8) = {0, 4, 2.5, 0.1555555555555556};
Point(9) = {0, 5, 0, 0.1555555555555556};
Point(10) = {3.5, 5, 0, 0.1555555555555556};
Point(11) = {3.5, 4, 0, 0.1555555555555556};
Point(12) = {0, 5, 2.5, 0.1555555555555556};
Point(13) = {3.5, 5, 2.5, 0.1555555555555556};
Point(14) = {3.5, 4, 2.5, 0.1555555555555556};
Point(31) = {5.5, 0.5, 1, 0.1037037037037037};
Point(32) = {5.5, 0.5, 2, 0.1037037037037037};
Point(33) = {6.5, 0.5, 1, 0.1037037037037037};
Point(34) = {6.5, 0.5, 2, 0.1037037037037037};
Point(35) = {5.5, 1.5, 1, 0.1037037037037037};
Point(36) = {5.5, 1.5, 2, 0.1037037037037037};
Point(37) = {6.5, 1.5, 1, 0.1037037037037037};
Point(38) = {6.5, 1.5, 2, 0.1037037037037037};
Point(722) = {1.5, 1, 2, cl__3};
Point(723) = {1.5, 1, 0, cl__3};
Line(1) = {1, 4};
Line(2) = {4, 9};
Line(3) = {9, 10};
Line(4) = {10, 11};
Line(5) = {11, 3};
Line(6) = {3, 2};
Line(7) = {2, 1};
Line(8) = {1, 5};
Line(9) = {4, 8};
Line(10) = {9, 12};
Line(11) = {10, 13};
Line(12) = {11, 14};
Line(13) = {3, 7};
Line(14) = {2, 6};
Line(15) = {5, 8};
Line(16) = {8, 12};
Line(17) = {12, 13};
Line(18) = {13, 14};
Line(19) = {14, 7};
Line(20) = {7, 6};
Line(21) = {6, 5};
Line(75) = {33, 37};
Line(76) = {37, 35};
Line(77) = {35, 31};
Line(78) = {31, 33};
Line(79) = {33, 34};
Line(80) = {37, 38};
Line(81) = {38, 36};
Line(82) = {36, 32};
Line(83) = {32, 34};
Line(84) = {34, 38};
Line(85) = {35, 36};
Line(86) = {31, 32};
p7000 = newp;
Point(p7000 + 1) = {1.5, 1, 2};
Point(p7000 + 2) = {1.5, 1, 2};
Point(p7000 + 3) = {1.5, 1, 2};
Point(p7000 + 4) = {1.5, 1, 2};
Point(p7000 + 5) = {1.5, 1, 2};
Point(p7000 + 6) = {1.5, 1, 2};
Point(p7000 + 7) = {1.5, 1, 2};
Point(p7000 + 8) = {1.5, 1, 2};
Point(p7000 + 9) = {1.5, 1, 2};
Point(p7000 + 10) = {1.5, 1, 2};
Point(p7000 + 11) = {1.5, 1, 2};
Point(p7000 + 12) = {1.5, 1, 2};
Point(p7000 + 13) = {1.5, 1, 2};
Point(p7000 + 14) = {1.5, 1, 2};
Point(p7000 + 15) = {1.5, 1, 2};
Point(p7000 + 16) = {1.5, 1, 2};
Point(p7000 + 17) = {1.5, 1, 2};
Point(p7000 + 18) = {1.5, 1, 2};
Point(p7000 + 19) = {1.5, 1, 2};
Point(p7000 + 20) = {1.5, 1, 2};
Point(p7000 + 21) = {1.5, 1, 2};
Point(p7000 + 22) = {1.5, 1, 2};
Point(p7000 + 23) = {1.5, 1, 2};
Point(p7000 + 24) = {1.5, 1, 2};
Point(p7000 + 25) = {1.5, 1, 2};
Point(p7000 + 26) = {1.5, 1, 2};
Point(p7000 + 27) = {1.5, 1, 2};
Point(p7000 + 28) = {1.5, 0.9999999999999999, 2};
Point(p7000 + 29) = {1.5, 0.9999999999999999, 2};
Point(p7000 + 30) = {1.5, 0.9999999999999999, 2};
Point(p7000 + 31) = {1.5, 0.9999999999999999, 2};
Point(p7000 + 32) = {1.5, 0.9999999999999999, 2};
Point(p7000 + 33) = {1.5, 1, 2};
Point(p7000 + 34) = {1.5, 1, 2};
Point(p7000 + 35) = {1.5, 1, 2};
Point(p7000 + 36) = {1.5, 1, 2};
Point(p7000 + 37) = {1.5, 1, 2};
Point(p7000 + 38) = {1.5, 1, 2};
Point(p7000 + 39) = {1.5, 1, 2};
Spline(7000) = {722, p7000 + 1, p7000 + 2, p7000 + 3, p7000 + 4, p7000 + 5, p7000 + 6, p7000 + 7, p7000 + 8, p7000 + 9, p7000 + 10, p7000 + 11, p7000 + 12, p7000 + 13, p7000 + 14, p7000 + 15, p7000 + 16, p7000 + 17, p7000 + 18, p7000 + 19, p7000 + 20, p7000 + 21, p7000 + 22, p7000 + 23, p7000 + 24, p7000 + 25, p7000 + 26, p7000 + 27, p7000 + 28, p7000 + 29, p7000 + 30, p7000 + 31, p7000 + 32, p7000 + 33, p7000 + 34, p7000 + 35, p7000 + 36, p7000 + 37, p7000 + 38, p7000 + 39, 722};
p7001 = newp;
Point(p7001 + 1) = {1.578459095727845, 1, 0.003082666266872036};
Point(p7001 + 2) = {1.656434465040231, 1, 0.01231165940486223};
Point(p7001 + 3) = {1.733445363855905, 0.9999999999999999, 0.02763007960232322};
Point(p7001 + 4) = {1.809016994374947, 0.9999999999999999, 0.04894348370484636};
Point(p7001 + 5) = {1.88268343236509, 0.9999999999999999, 0.07612046748871337};
Point(p7001 + 6) = {1.953990499739547, 0.9999999999999999, 0.1089934758116321};
Point(p7001 + 7) = {2.022498564715948, 0.9999999999999999, 0.1473598356459075};
Point(p7001 + 8) = {2.087785252292473, 0.9999999999999999, 0.1909830056250524};
Point(p7001 + 9) = {2.149448048330184, 0.9999999999999999, 0.2395940343999692};
Point(p7001 + 10) = {2.207106781186547, 0.9999999999999998, 0.2928932188134523};
Point(p7001 + 11) = {2.260405965600031, 0.9999999999999998, 0.3505519516698166};
Point(p7001 + 12) = {2.309016994374947, 0.9999999999999998, 0.4122147477075266};
Point(p7001 + 13) = {2.352640164354092, 0.9999999999999998, 0.4775014352840513};
Point(p7001 + 14) = {2.391006524188368, 0.9999999999999998, 0.546009500260453};
Point(p7001 + 15) = {2.423879532511287, 0.9999999999999998, 0.6173165676349096};
Point(p7001 + 16) = {2.451056516295154, 0.9999999999999998, 0.6909830056250523};
Point(p7001 + 17) = {2.472369920397677, 0.9999999999999998, 0.7665546361440948};
Point(p7001 + 18) = {2.487688340595138, 0.9999999999999998, 0.8435655349597689};
Point(p7001 + 19) = {2.496917333733128, 0.9999999999999998, 0.9215409042721544};
Point(p7001 + 20) = {2.5, 0.9999999999999998, 0.9999999999999998};
Point(p7001 + 21) = {2.496917333733128, 0.9999999999999998, 1.078459095727845};
Point(p7001 + 22) = {2.487688340595138, 0.9999999999999998, 1.156434465040231};
Point(p7001 + 23) = {2.472369920397677, 0.9999999999999998, 1.233445363855905};
Point(p7001 + 24) = {2.451056516295154, 0.9999999999999998, 1.309016994374947};
Point(p7001 + 25) = {2.423879532511287, 0.9999999999999998, 1.38268343236509};
Point(p7001 + 26) = {2.391006524188368, 0.9999999999999998, 1.453990499739547};
Point(p7001 + 27) = {2.352640164354093, 0.9999999999999998, 1.522498564715948};
Point(p7001 + 28) = {2.309016994374947, 0.9999999999999998, 1.587785252292473};
Point(p7001 + 29) = {2.260405965600031, 0.9999999999999998, 1.649448048330184};
Point(p7001 + 30) = {2.207106781186548, 0.9999999999999998, 1.707106781186547};
Point(p7001 + 31) = {2.149448048330184, 0.9999999999999999, 1.760405965600031};
Point(p7001 + 32) = {2.087785252292473, 0.9999999999999999, 1.809016994374947};
Point(p7001 + 33) = {2.022498564715949, 0.9999999999999999, 1.852640164354092};
Point(p7001 + 34) = {1.953990499739547, 0.9999999999999999, 1.891006524188368};
Point(p7001 + 35) = {1.882683432365091, 0.9999999999999999, 1.923879532511287};
Point(p7001 + 36) = {1.809016994374948, 0.9999999999999999, 1.951056516295154};
Point(p7001 + 37) = {1.733445363855905, 0.9999999999999999, 1.972369920397677};
Point(p7001 + 38) = {1.656434465040231, 1, 1.987688340595138};
Point(p7001 + 39) = {1.578459095727846, 1, 1.996917333733128};
Spline(7001) = {723, p7001 + 1, p7001 + 2, p7001 + 3, p7001 + 4, p7001 + 5, p7001 + 6, p7001 + 7, p7001 + 8, p7001 + 9, p7001 + 10, p7001 + 11, p7001 + 12, p7001 + 13, p7001 + 14, p7001 + 15, p7001 + 16, p7001 + 17, p7001 + 18, p7001 + 19, p7001 + 20, p7001 + 21, p7001 + 22, p7001 + 23, p7001 + 24, p7001 + 25, p7001 + 26, p7001 + 27, p7001 + 28, p7001 + 29, p7001 + 30, p7001 + 31, p7001 + 32, p7001 + 33, p7001 + 34, p7001 + 35, p7001 + 36, p7001 + 37, p7001 + 38, p7001 + 39, 722};
p7002 = newp;
Point(p7002 + 1) = {1.5, 1, 0};
Point(p7002 + 2) = {1.5, 1, 0};
Point(p7002 + 3) = {1.5, 1, 0};
Point(p7002 + 4) = {1.5, 1, 0};
Point(p7002 + 5) = {1.5, 1, 0};
Point(p7002 + 6) = {1.5, 1, 0};
Point(p7002 + 7) = {1.5, 1, 0};
Point(p7002 + 8) = {1.5, 1, 0};
Point(p7002 + 9) = {1.5, 1, 0};
Point(p7002 + 10) = {1.5, 1, 0};
Point(p7002 + 11) = {1.5, 1, 0};
Point(p7002 + 12) = {1.5, 1, 0};
Point(p7002 + 13) = {1.5, 1, 0};
Point(p7002 + 14) = {1.5, 1, 0};
Point(p7002 + 15) = {1.5, 1, 0};
Point(p7002 + 16) = {1.5, 1, 0};
Point(p7002 + 17) = {1.5, 1, 0};
Point(p7002 + 18) = {1.5, 1, 0};
Point(p7002 + 19) = {1.5, 1, 0};
Point(p7002 + 20) = {1.5, 1, 0};
Point(p7002 + 21) = {1.5, 1, 0};
Point(p7002 + 22) = {1.5, 1, 0};
Point(p7002 + 23) = {1.5, 1, 0};
Point(p7002 + 24) = {1.5, 1, 0};
Point(p7002 + 25) = {1.5, 1, 0};
Point(p7002 + 26) = {1.5, 1, 0};
Point(p7002 + 27) = {1.5, 1, 0};
Point(p7002 + 28) = {1.5, 0.9999999999999999, 0};
Point(p7002 + 29) = {1.5, 0.9999999999999999, 0};
Point(p7002 + 30) = {1.5, 0.9999999999999999, 0};
Point(p7002 + 31) = {1.5, 0.9999999999999999, 0};
Point(p7002 + 32) = {1.5, 0.9999999999999999, 0};
Point(p7002 + 33) = {1.5, 1, 0};
Point(p7002 + 34) = {1.5, 1, 0};
Point(p7002 + 35) = {1.5, 1, 0};
Point(p7002 + 36) = {1.5, 1, 0};
Point(p7002 + 37) = {1.5, 1, 0};
Point(p7002 + 38) = {1.5, 1, 0};
Point(p7002 + 39) = {1.5, 1, 0};
Spline(7002) = {723, p7002 + 1, p7002 + 2, p7002 + 3, p7002 + 4, p7002 + 5, p7002 + 6, p7002 + 7, p7002 + 8, p7002 + 9, p7002 + 10, p7002 + 11, p7002 + 12, p7002 + 13, p7002 + 14, p7002 + 15, p7002 + 16, p7002 + 17, p7002 + 18, p7002 + 19, p7002 + 20, p7002 + 21, p7002 + 22, p7002 + 23, p7002 + 24, p7002 + 25, p7002 + 26, p7002 + 27, p7002 + 28, p7002 + 29, p7002 + 30, p7002 + 31, p7002 + 32, p7002 + 33, p7002 + 34, p7002 + 35, p7002 + 36, p7002 + 37, p7002 + 38, p7002 + 39, 723};
Line Loop(88) = {75, 80, -84, -79};
Plane Surface(88) = {88};
Line Loop(90) = {76, 85, -81, -80};
Plane Surface(90) = {90};
Line Loop(92) = {77, 86, -82, -85};
Plane Surface(92) = {92};
Line Loop(94) = {78, 79, -83, -86};
Plane Surface(94) = {94};
Line Loop(96) = {75, 76, 77, 78};
Plane Surface(96) = {96};
Line Loop(98) = {84, 81, 82, 83};
Plane Surface(98) = {98};
Line Loop(116) = {5, 13, -19, -12};
Surface(116) = {116};
Line Loop(118) = {4, 12, -18, -11};
Surface(118) = {118};
Line Loop(120) = {3, 11, -17, -10};
Surface(120) = {120};
Line Loop(122) = {2, 10, -16, -9};
Surface(122) = {122};
Line Loop(124) = {1, 9, -15, -8};
Surface(124) = {124};
Line Loop(126) = {7, 8, -21, -14};
Surface(126) = {126};
Line Loop(131) = {21, 15, 16, 17, 18, 19, 20};
Plane Surface(131) = {131};
Line Loop(156) = {7, 1, 2, 3, 4, 5, 6};
Plane Surface(156) = {156};
Line Loop(7002) = {7000, -7001, 7002, 7001};
Surface(7002) = {7002};
Surface Loop(185) = {94, 96, 88, 90, 92, 98};
Volume(185) = {185};
Surface Loop(186) = {7002};
Volume(186) = {186};
lz1 = 2;
Physical Surface(lz1) = {99};
lz5 = 1;
Physical Volume(lz5) = {185};
Physical Volume(5) = {185};
//+
Recursive Delete {
  Point{783}; 
}
//+
Recursive Delete {
  Volume{186}; 
}
//+
Recursive Delete {
  Surface{118}; Curve{7001}; 
}
//+
Recursive Delete {
  Point{723}; 
}
//+
SetFactory("OpenCASCADE");
Sphere(186) = {1.5, 1.5, 1., 1., -Pi/2, Pi/2, 2*Pi};
//+
SetFactory("Built-in");
//+
Translate {10, 0, 1} {
  Duplicata { Surface{7002}; }
}
//+
Translate {10, 0, 1} {
  Duplicata { Surface{7002}; }
}
//+
Translate {10, 0, 1} {
  Duplicata { Surface{7002}; }
}
//+
Translate {10, 0, 1} {
  Duplicata { Surface{7002}; }
}
//+
Translate {10, 0, 1} {
  Duplicata { Surface{7002}; }
}
//+
Translate {10, 0, 1} {
  Duplicata { Surface{7002}; }
}
//+
Translate {10, 0, 1} {
  Duplicata { Surface{7002}; }
}
//+
Translate {10, 0, 1} {
  Duplicata { Surface{7002}; }
}
//+
Translate {10, 0, 1} {
  Duplicata { Surface{7002}; }
}
//+
Translate {10, 0, 1} {
  Surface{7002}; 
}
//+
Translate {10, 0, 1} {
  Surface{7002}; 
}
//+
Translate {10, 0, 1} {
  Surface{7002}; 
}
//+
Translate {10, 0, 1} {
  Surface{7002}; 
}
//+
Translate {10, 0, 1} {
  Surface{7002}; 
}
//+
Translate {10, 0, 1} {
  Volume{185}; 
}
//+
Translate {-10, 0, -1} {
  Volume{185}; 
}
//+
Translate {1, 0, 0} {
  Volume{186}; 
}
//+
Translate {1, 0, 0} {
  Volume{186}; 
}
//+
Translate {1, 0, 0} {
  Volume{186}; 
}
//+
Translate {1, 0, 0} {
  Volume{186}; 
}
//+
Recursive Delete {
  Volume{186}; 
}
//+
Recursive Delete {
  Volume{186}; 
}
//+
Recursive Delete {
  Volume{186}; 
}
//+
Recursive Delete {
  Volume{186}; 
}
//+
Recursive Delete {
  Volume{186}; 
}
//+
Recursive Delete {
  Volume{186}; 
}
//+
Recursive Delete {
  Volume{186}; 
}
//+
Recursive Delete {
  Volume{186}; 
}
//+
Recursive Delete {
  Volume{186}; 
}
//+
Recursive Delete {
  Volume{186}; 
}
//+
Recursive Delete {
  Volume{186}; 
}
//+
Recursive Delete {
  Volume{186}; 
}
//+
Recursive Delete {
  Volume{186}; 
}
//+
Recursive Delete {
  Volume{186}; 
}
//+
Recursive Delete {
  Volume{186}; 
}
//+
Recursive Delete {
  Volume{186}; 
}
//+
Recursive Delete {
  Volume{186}; 
}
//+
Recursive Delete {
  Volume{186}; 
}
//+
Recursive Delete {
  Volume{186}; 
}
//+
Recursive Delete {
  Volume{186}; 
}
//+
Recursive Delete {
  Volume{186}; 
}
//+
Recursive Delete {
  Volume{186}; 
}
//+
Recursive Delete {
  Volume{186}; 
}
//+
Recursive Delete {
  Volume{186}; 
}
//+
Recursive Delete {
  Volume{186}; 
}
//+
Recursive Delete {
  Volume{186}; 
}
//+
Recursive Delete {
  Surface{7002}; 
}
//+
Recursive Delete {
  Surface{7002}; 
}
//+
Recursive Delete {
  Surface{7002}; Curve{7003}; 
}
//+
Recursive Delete {
  Volume{186}; 
}
//+
Recursive Delete {
  Curve{7003}; 
}
//+
Recursive Delete {
  Surface{7002}; 
}
